Coordinates
version=1
nRows=5
nColumns=40
inDegrees=yes

Units are S.I. units (second, meters, Newtons, ...)
Angles are in degrees.

endheader
time	pelvis_tilt	pelvis_list	pelvis_rotation	pelvis_tx	pelvis_ty	pelvis_tz	hip_flexion_r	hip_adduction_r	hip_rotation_r	knee_angle_r	knee_angle_r_beta	ankle_angle_r	subtalar_angle_r	mtp_angle_r	hip_flexion_l	hip_adduction_l	hip_rotation_l	knee_angle_l	knee_angle_l_beta	ankle_angle_l	subtalar_angle_l	mtp_angle_l	lumbar_extension	lumbar_bending	lumbar_rotation	arm_flex_r	arm_add_r	arm_rot_r	elbow_flex_r	pro_sup_r	wrist_flex_r	wrist_dev_r	arm_flex_l	arm_add_l	arm_rot_l	elbow_flex_l	pro_sup_l	wrist_flex_l	wrist_dev_l
     42.61000000	     -4.87641679	     -3.50784642	     -0.83993491	      1.04899494	      0.93074710	      0.39921128	     33.73803257	     -7.00093757	     -6.94812895	     74.92649929	     74.92649929	      5.46329554	    -18.41746600	      6.72207429	     17.41449760	     -4.81114179	    -11.32844833	     21.20172039	     21.20172039	     10.86367137	    -10.57257630	     -4.27003135	    -10.10032103	      4.14776639	      1.02097310	     11.27346667	    -13.30129792	     -1.65679429	     75.41884177	     44.56854472	      0.00000000	      0.00000000	     13.71311311	    -13.38014545	      4.14569540	     35.37768594	     45.15457522	      0.00000000	      0.00000000
     42.62150000	     -4.66427848	     -3.61819500	     -1.00816305	      1.04791743	      0.93147879	      0.39843528	     35.07359830	     -6.78208378	     -6.67535532	     73.83049152	     73.83049152	      5.04090023	    -18.17755555	      6.12446171	     16.34987636	     -4.85089297	    -11.47366387	     20.83522976	     20.83522976	     11.20089093	    -10.50835531	     -4.68688657	    -10.43681124	      4.41677563	      1.20801995	      9.42108891	    -13.46916668	     -2.42059800	     70.98741395	     44.76602793	      0.00000000	      0.00000000	     15.73960149	    -13.89403040	      4.19430646	     36.65428850	     45.22086782	      0.00000000	      0.00000000
     42.63300000	     -4.40146798	     -3.74737199	     -1.17387894	      1.04692256	      0.93226300	      0.39768079	     36.18716597	     -6.51977121	     -6.43718233	     72.48656350	     72.48656350	      4.66650393	    -17.91272794	      6.03955226	     15.18589229	     -4.88763832	    -11.58856532	     20.38637379	     20.38637379	     11.61589482	    -10.40974882	     -4.78224639	    -10.90422412	      4.71979286	      1.68986964	      7.13214840	    -14.14860999	     -2.52630820	     67.83531488	     44.87455438	      0.00000000	      0.00000000	     17.85010445	    -14.18883620	      4.04723229	     38.12388406	     45.28342189	      0.00000000	      0.00000000
     42.64450000	     -4.16285086	     -3.84054001	     -1.35405827	      1.04596017	      0.93289842	      0.39696275	     37.16667839	     -6.30244998	     -6.22025282	     70.87017970	     70.87017970	      4.23044448	    -17.55913552	      5.82567247	     14.06349235	     -4.89181363	    -11.75129285	     19.95672076	     19.95672076	     12.02800727	    -10.29702067	     -4.95088266	    -11.33826091	      4.96976631	      2.13390443	      5.44743143	    -14.48930046	     -3.06876186	     63.41497395	     45.04649447	      0.00000000	      0.00000000	     19.87887576	    -14.56125968	      3.98696567	     39.67474085	     45.33803468	      0.00000000	      0.00000000
     42.65600000	     -4.04206238	     -3.89898489	     -1.46898331	      1.04498960	      0.93327137	      0.39630996	     38.04865520	     -6.17275546	     -6.14704533	     68.86007500	     68.86007500	      3.52602734	    -17.30169133	      4.86967590	     13.12334821	     -4.85936115	    -11.85250106	     19.57628851	     19.57628851	     12.29888918	    -10.21014970	     -5.30434447	    -11.48857470	      5.13022108	      1.30467410	      5.93238853	    -13.39909035	     -5.02808758	     55.14477808	     45.42689647	      0.00000000	      0.00000000	     20.95720604	    -15.78971631	      4.22162651	     41.46979359	     45.38464197	      0.00000000	      0.00000000
